<?xml version="1.0" encoding="UTF-8" standalone="no"?>
<!-- Created with Inkscape (http://www.inkscape.org/) -->

<svg
   version="1.1"
   id="svg1"
   width="461.94666"
   height="520"
   viewBox="0 0 461.94666 520"
   sodipodi:docname="1188.eps"
   xmlns:inkscape="http://www.inkscape.org/namespaces/inkscape"
   xmlns:sodipodi="http://sodipodi.sourceforge.net/DTD/sodipodi-0.dtd"
   xmlns="http://www.w3.org/2000/svg"
   xmlns:svg="http://www.w3.org/2000/svg">
  <defs
     id="defs1" />
  <sodipodi:namedview
     id="namedview1"
     pagecolor="#ffffff"
     bordercolor="#000000"
     borderopacity="0.25"
     inkscape:showpageshadow="2"
     inkscape:pageopacity="0.0"
     inkscape:pagecheckerboard="0"
     inkscape:deskcolor="#d1d1d1">
    <inkscape:page
       x="0"
       y="0"
       inkscape:label="1"
       id="page1"
       width="461.94666"
       height="520"
       margin="0"
       bleed="0" />
  </sodipodi:namedview>
  <g
     id="g1"
     inkscape:groupmode="layer"
     inkscape:label="1">
    <g
       id="group-R5">
      <path
         id="path2"
         d="m 3023.95,1610.42 c -50.8,1.66 -88.17,-19.83 -114.1,-65.46 l -2.38,-4.19 -102.33,51.94 c -6.35,3.25 -14.05,2.86 -20.05,-1.01 -1.86,-1.19 -46.37,-29.22 -94.52,6.37 l -5.24,3.88 5.07,4.11 c 86.61,70.16 74.98,102.53 70.6,114.72 l -4.68,13.19 c -3.56,10.14 -8.42,23.92 -13.61,38.41 l -3.77,10.48 -11.12,-0.47 c -7.06,-0.21 -13.3,1.06 -18.31,4.07 l -4.36,2.6 2.64,4.35 c 16.23,26.68 10.86,41.66 7.97,49.7 -1.67,4.66 -3.36,9.68 -5.14,14.99 -4.27,12.7 -8.94,26.28 -14.87,40.29 l -1.47,3.47 2.9,2.39 c 90.31,74.71 89.06,115.93 80.28,140.42 -22.25,62 -43.29,105.47 -65.55,151.5 -12.69,26.2 -26.99,55.74 -42.43,91.05 l -0.7,1.57 0.42,1.67 c 18.38,74.22 30.23,150.58 35.19,226.95 l 0.42,6.56 6.24,-2.1 c 9.84,-3.33 19.37,-5.29 29.13,-5.98 l 2.46,-0.17 1.39,-2.06 c 54.74,-81.92 76.42,-134.03 100.83,-242.4 20.37,-90.38 16.9,-161.51 12.12,-259.98 l -0.08,-1.77 c -1.13,-23.06 -2.32,-47.52 -3.25,-73.93 -3.91,-108.24 48.22,-153.55 103.4,-201.53 6.63,-5.75 13.01,-11.32 19.45,-17.07 1.96,-1.77 47.94,-43.65 52.64,-101.1 l 0.45,-5.64 z m 423.7,-861.299 c 8.59,3.848 13.42,13.309 11.52,22.52 l -111.09,536.939 c -1.25,6.05 -5.14,11.13 -10.64,13.93 l -33.61,17.05 1.7,4.29 c 23.63,59.62 15.32,107.22 -26.13,149.83 l -2.55,2.62 1.69,3.24 c 12.42,23.86 33.84,72.84 37.62,132.78 l 0.16,2.47 c 3.36,62.08 -13.34,116.61 -49.68,162.03 -25.52,31.9 -52.96,55.43 -77.19,76.2 -51.67,44.28 -88.99,76.29 -85.88,162.94 1.08,30.06 2.64,57.91 4.01,82.49 5.35,96.43 9.58,172.59 -16.54,265.4 -31.18,110.82 -75,181.02 -131.19,252.33 l -2.5,3.17 2.54,3.14 c 35.31,43.51 41.97,85.47 20.38,128.28 l -1.95,3.85 31.42,22.57 c 10.94,7.85 13.79,22.87 6.5,34.18 l -341.69,530.21 c -3.06,4.74 -7.68,8.36 -13,10.2 l -291.91,100.6 -0.87,0.94 c -244.79,267.95 -592.61,421.63 -954.29,421.63 -390.37,0 -755.601,-173.49 -1002.058,-475.97 l -2.656,-3.26 -3.692,2.02 c -40.136,22.04 -90.996,7.69 -132.777,-37.43 -32.914,-35.54 -58.035,-91.16 -35.399,-129.26 l 1.641,-2.76 -1.805,-2.65 C -28.3047,2854.67 -69.9336,2364.52 126.391,1934.46 198.328,1776.88 297.809,1637.22 422.074,1519.32 l 2.297,-2.17 -0.957,-3.02 c -7.766,-24.46 -4.391,-51.58 9.512,-76.37 16.594,-29.58 45.25,-51.14 71.297,-53.67 l 3.207,-0.31 1.078,-3.05 c 19.094,-54.6 23.543,-67.72 25.918,-74.75 2.82,-8.35 2.91,-8.59 20.98,-58.95 8.84,-24.63 34.25,-57.36 152.297,-57.36 14.801,0 31.086,0.54 48.395,1.6 l 3.789,0.23 1.273,-3.57 c 2.961,-8.27 6.008,-16.12 8.852,-23.36 2.465,-6.26 4.738,-12.05 6.699,-17.51 2.969,-8.27 8.492,-23.65 39.777,-33.95 l 4.625,-1.52 -1.347,-4.67 c -1.692,-5.88 -4.883,-10.37 -9.493,-13.37 l -9.449,-6.13 3.176,-10.83 c 6.621,-22.51 11.945,-36.24 15.48,-45.33 1.188,-3.07 1.899,-4.9 2.485,-6.52 4.015,-11.2 13.422,-37.42 92.539,-42.752 l 13.332,-0.886 -10.602,-8.153 C 692.105,799.922 681.168,617.238 685.691,551.609 722.18,674.398 803.016,733.98 803.883,734.602 l 13.691,9.878 -6.011,-15.769 c -38.461,-100.961 27.398,-150.27 30.214,-152.32 l 2.5,-1.821 -0.468,-3.058 c -9.61,-61.293 5.484,-117.051 14.246,-142.5 15.5,53.097 54.09,126.867 59.832,137.707 -6.364,160.621 64.437,186.09 67.461,187.113 l 11.164,3.707 -4.992,-10.648 C 942.449,642.211 976.234,539.59 976.582,538.559 l 0.738,-2.168 -1.168,-2 C 930.426,456.531 920.527,369.559 918.445,330.641 1002.9,483.98 1054.83,501.5 1069.4,503.148 c 26.84,62.262 57.84,87.211 59.17,88.262 l 14.95,11.789 -7.14,-17.648 C 1093.99,480.68 1087.5,422.75 1087.7,396.398 c 146.5,324.84 208.08,335.801 215.63,335.801 0.07,0 0.13,0 0.2,0 l 7.96,-0.219 -3.59,-7.109 C 1061.65,237.969 1060.86,58.0703 1066.67,13.6719 1386.74,543.18 1912,745.59 1941.71,756.68 l 2.81,3.25 c 257.22,220.261 350.08,263.8 444.8,297.91 262.6,82.28 483.7,89.83 657.3,22.45 187.43,-72.69 374.69,-322.29 376.56,-324.798 5.5,-7.39 16.02,-10.164 24.47,-6.371"
         style="fill:#ffffff;fill-opacity:1;fill-rule:nonzero;stroke:none"
         transform="matrix(0.13333333,0,0,-0.13333333,0,520)" />
      <path
         id="path3"
         d="m 1377.44,2131.55 379.91,348.38 c 10.26,9.44 26.24,8.74 35.67,-1.55 9.42,-10.27 8.72,-26.24 -1.55,-35.67 l -375.65,-344.47 c 51.27,-37.62 114.51,-59.87 182.97,-59.87 171.05,0 309.71,138.66 309.71,309.71 0,100.16 -47.59,189.16 -121.34,245.77 l -449.49,-412.21 c 11.53,-18.06 24.85,-34.84 39.77,-50.09"
         style="fill:#262525;fill-opacity:1;fill-rule:nonzero;stroke:none"
         transform="matrix(0.13333333,0,0,-0.13333333,0,520)" />
      <path
         id="path4"
         d="m 1461.45,2625.68 c 17.06,-29.37 6.11,-72.53 -27.38,-101.15 -31.57,-26.97 -72.75,-32.16 -99.45,-14.75 -26.31,-42.9 -42.49,-92.68 -45.14,-146.03 l 320.34,293.76 c -3.66,0.13 -7.33,0.28 -11.03,0.28 -49.34,0 -95.95,-11.59 -137.34,-32.11"
         style="fill:#262525;fill-opacity:1;fill-rule:nonzero;stroke:none"
         transform="matrix(0.13333333,0,0,-0.13333333,0,520)" />
      <path
         id="path5"
         d="m 1299.13,2269.62 403.7,370.2 c -16.9,6.03 -34.49,10.61 -52.6,13.64 l -360.07,-330.19 c 1.46,-18.38 4.44,-36.32 8.97,-53.65"
         style="fill:#262525;fill-opacity:1;fill-rule:nonzero;stroke:none"
         transform="matrix(0.13333333,0,0,-0.13333333,0,520)" />
      <path
         id="path6"
         d="m 1182.29,3750.46 c -82.61,-12.53 -163.87,-36.06 -240.778,-69.53 -76.926,-33.43 -149.571,-76.72 -215.16,-128.47 -65.414,-51.87 -124.286,-111.93 -171.09,-180.26 65.054,51.09 130.215,99.03 198.484,141.48 68.078,42.6 138.77,79.96 211.906,111.69 73.148,31.71 148.678,57.84 226.278,78.42 77.63,20.82 157.15,35.57 238.91,48.32 -81.87,12.52 -165.95,10.69 -248.55,-1.65"
         style="fill:#262525;fill-opacity:1;fill-rule:nonzero;stroke:none"
         transform="matrix(0.13333333,0,0,-0.13333333,0,520)" />
      <path
         id="path7"
         d="m 1061.76,3611.2 c -49.3,-12.57 -97.201,-30.61 -142.854,-52.98 -45.664,-22.36 -89.172,-49 -129.718,-79.43 -40.348,-30.64 -78.254,-64.68 -110.27,-103.95 43.078,26.57 84.934,53 127.777,77.57 42.684,24.74 85.918,48.02 129.95,69.53 44.046,21.5 88.855,41.28 134.725,58.99 45.84,17.92 92.74,33.21 141.12,48.07 -50.67,1.93 -101.43,-5.46 -150.73,-17.8"
         style="fill:#262525;fill-opacity:1;fill-rule:nonzero;stroke:none"
         transform="matrix(0.13333333,0,0,-0.13333333,0,520)" />
      <path
         id="path8"
         d="m 3350.35,910 -67.11,312.49 -128.86,-146.89 c -11.71,7.39 -23.55,14.34 -35.48,20.83 l 143.17,163.21 -367.26,236.59 397.7,-201.88 13.53,-6.87 6.52,-31.56 81.39,-393.361 c -12.97,14.711 -27.64,30.761 -43.6,47.441 z M 1471.71,563.879 c 16.83,100.992 70.69,210.402 70.69,210.402 -62.27,-53.871 -127.92,-195.261 -149.8,-235.652 -21.88,-40.399 -228.92,-271 -228.92,-271 170.01,348.422 299.62,506.652 299.62,506.652 237.32,239.009 553.77,388.819 553.77,388.819 C 1678.74,913.98 1641.71,812.992 1641.71,812.992 2000.24,1127.75 2276.28,1210.22 2276.28,1210.22 1953.11,1001.51 1872.31,882 1872.31,882 c 486.45,323.18 661.5,334.96 661.5,334.96 -21.32,-10.74 -41.25,-21.14 -59.93,-31.22 C 2366.04,1140.29 2161.26,1005.9 1909.73,790.07 1712.8,731.16 1471.71,563.879 1471.71,563.879 Z m -177.44,310.223 c -3.43,-1.301 -3.93,-1.454 -6.06,-2.571 -1.78,-0.89 -3.68,-2.051 -5.61,-3.359 -7.9,-5.192 -15.1,-13.434 -23.22,-20.953 -8.27,-7.449 -17.75,-14.5 -26.79,-22.207 -9.26,-7.532 -18.67,-15.223 -28.67,-22.492 -10.01,-7.059 -20.68,-14.481 -32.67,-18.149 8.01,9.289 13.38,19.789 19.38,30.117 5.66,9.973 11.36,20.012 17.36,30.024 -12.1,1.726 -23.44,3.699 -34.47,5.527 -12.31,1.832 -24.36,3.383 -36.14,2.59 -11.86,-0.578 -23.27,-2.41 -36.82,-6.82 5.95,13.05 19.13,22.101 32.73,26.601 13.76,4.41 27.95,6.25 41.6,6.91 13.65,0.891 26.97,0.219 39.15,0.731 6,0.34 11.87,0.609 16.58,1.449 2.35,0.262 4.15,0.809 5.63,1.391 7.04,6.668 15.07,12.757 23.97,18.879 3,1.992 6.17,3.921 9.7,5.679 3.1,1.699 8.17,3.641 10.29,4.422 5.44,2.051 10.84,4.098 16.28,5.93 10.83,3.777 21.86,6.781 32.7,10.191 10.8,3.488 21.5,7.129 31.73,11.828 10.23,4.75 20.11,10.211 28.31,19.61 -0.99,-12.68 -8.52,-24.629 -16.87,-34.36 -8.59,-9.789 -18.51,-18.109 -28.85,-25.351 -10.33,-7.309 -21.09,-13.758 -32.29,-18.789 -5.58,-2.559 -11.27,-4.75 -16.95,-6.828 z M 855.23,1036.68 c -0.753,2.09 -1.683,4.5 -2.8,7.37 -2.625,6.77 -6.321,16.28 -10.809,30.37 6.699,7.78 10.641,16.79 12.77,25.8 13.078,-1.48 28.289,-2.34 46.043,-2.34 49.211,0 117.806,6.55 213.706,24.22 192.07,35.41 438.92,105.56 695.08,197.5 256.17,91.96 491.26,194.82 662.01,289.66 117.54,65.28 181.43,113.82 215.61,149.67 7.71,-5.58 16.88,-9.34 27.06,-10.98 3.44,-9.69 6.58,-18.6 9.09,-25.72 l 4.73,-13.38 c 6.01,-16.69 -34.59,-77.01 -231.09,-185.89 -58.16,-32.23 -124.05,-65.43 -195.63,-98.83 66.94,33.74 132.69,69.89 197.32,107.96 16.58,9.98 32.95,20.35 49.35,30.63 16.08,10.83 32.37,21.3 48.1,32.66 31.66,22.35 62.13,46.56 90.51,72.92 -66.25,-40.07 -132.92,-77.64 -200.61,-114.01 -67.33,-36.9 -136.27,-70.81 -205.57,-103.91 -10.94,-5.17 -21.92,-10.23 -32.91,-15.33 12.26,5.92 24.52,11.82 36.72,17.86 69.3,34.31 137.32,71.17 204.34,109.8 l 49.62,30.1 c 16.16,10.7 32.59,20.88 48.42,32.07 31.93,21.91 62.72,45.68 91.48,71.58 -66.83,-39 -133.96,-75.68 -201.95,-111.44 -67.66,-36.23 -136.79,-69.73 -206.22,-102.48 -122.48,-57.03 -246.67,-110.61 -373.08,-158.02 18.78,-0.12 34.2,-7.76 38.37,-21.04 5.84,-18.6 -12.44,-40.89 -40.82,-49.81 -28.38,-8.9 -56.13,-1.07 -61.96,17.52 -3.6,11.47 2.02,24.33 13.49,34.61 -0.29,-0.11 -0.59,-0.21 -0.88,-0.32 -144.6,-51.89 -290.72,-99.92 -438.34,-141.71 -73.81,-20.89 -148.02,-40.21 -222.64,-57.05 -45.37,-10.29 -94.04,-18.62 -142.26,-24.73 0.05,0.09 0.17,0.31 0.17,0.31 0,0 -10.74,-1.55 -27.04,-3.47 -21.919,-2.4 -43.618,-4.38 -64.692,-5.78 l 0.031,-0.14 c -23.75,-1.44 -47.676,-1.87 -65.683,0.14 0,0 8.425,-38.62 27.871,-55.51 -37.961,3.01 -54.164,11.49 -56.907,19.14 z M 809.977,1159 c -2.09,5.82 -4.512,12.01 -7.071,18.5 -1.554,3.96 -3.101,8.07 -4.652,12.14 42.531,4.21 92.371,11.26 150.918,21.84 219.278,39.66 500.828,119.21 792.768,224.02 291.94,104.79 559.81,222.46 754.26,331.31 73.65,41.23 129.24,76.82 171.08,107.72 3.7,-9.63 6.92,-19.03 9.83,-27.69 1.86,-5.54 3.63,-10.8 5.38,-15.68 6.04,-16.82 -34.44,-77.49 -230.87,-186.59 -65.94,-36.62 -141.74,-74.47 -224.66,-112.45 3.81,1.88 7.63,3.69 11.43,5.59 69.32,34.41 137.32,71.48 204.17,110.53 16.62,9.93 33.04,20.24 49.47,30.46 16.12,10.77 32.45,21.18 48.21,32.49 31.74,22.24 62.3,46.34 90.78,72.59 -66.4,-39.82 -133.2,-77.16 -201.02,-113.29 -67.46,-36.65 -136.53,-70.32 -205.93,-103.18 -10.96,-5.11 -21.96,-10.14 -32.95,-15.2 12.27,5.87 24.55,11.74 36.76,17.72 69.42,34.06 137.56,70.69 204.72,109.07 l 49.73,29.93 c 16.2,10.63 32.67,20.76 48.54,31.89 32,21.8 62.88,45.45 91.73,71.25 -66.96,-38.75 -134.23,-75.2 -202.35,-110.71 -67.78,-36 -137.03,-69.24 -206.56,-101.75 -122.7,-56.59 -247.07,-109.72 -373.66,-156.69 18.77,-0.18 34.16,-7.89 38.29,-21.18 5.78,-18.61 -12.58,-40.84 -40.99,-49.65 -28.41,-8.82 -56.12,-0.88 -61.9,17.74 -3.56,11.47 2.11,24.31 13.62,34.56 -0.31,-0.11 -0.59,-0.22 -0.88,-0.33 -144.8,-51.36 -291.09,-98.87 -438.85,-140.14 -73.89,-20.63 -229.82,-66.02 -449.902,-98.84 l 0.008,-0.03 c -19.25,-2.48 -38.684,-4.94 -53.031,-6.7 0,0 4.066,-22.1 16.769,-38.36 -35.281,3.38 -50.508,11.65 -53.187,19.11 z M 2521.46,2831.28 c 5.59,-31.1 -5.95,-59.2 -25.76,-62.77 -19.83,-3.56 -40.42,18.78 -46.01,49.88 -5.59,31.11 5.95,59.22 25.76,62.78 19.83,3.56 40.42,-18.77 46.01,-49.89 z m -50.73,154.68 c -11.73,-2.11 -23.24,7.32 -25.71,21.06 -2.47,13.74 5.04,26.59 16.77,28.69 11.74,2.11 23.24,-7.32 25.71,-21.06 2.48,-13.74 -5.03,-26.58 -16.77,-28.69 z M 607.684,1265.8 c -17.86,49.76 -17.864,49.76 -20.637,57.97 -2.121,6.26 -5.832,17.24 -20.012,57.85 120.707,12.01 329.547,61.97 558.435,195.02 l 5.52,3.21 3.75,5.16 c 6.33,8.71 148.04,204.6 223.77,389.57 69.33,-44.77 151.79,-70.87 240.28,-70.87 16.95,0 33.66,1.05 50.12,2.91 -8.08,-2.91 -16.2,-5.73 -24.44,-8.35 -19.77,-6.13 -40.17,-10.61 -61,-13.98 -20.84,-3.62 -42.05,-6.56 -63.99,-10.87 28.58,-10.51 58.61,-14.33 89.02,-14.68 -18.56,-6.72 -37.38,-12.76 -56.57,-17.84 -22.88,-6.28 -46.01,-11.88 -70.04,-17.98 24.12,-6.02 49.06,-7.32 73.75,-6.33 5.02,0.25 10.05,0.63 15.07,1.03 -16.69,-6.72 -33.49,-13.17 -50.51,-19.08 -24.96,-8.87 -49.96,-17.41 -75.9,-26.12 27.24,-3.34 54.78,-1.47 81.72,2.22 2.25,0.33 4.47,0.82 6.72,1.17 -14.77,-6.49 -29.61,-12.85 -44.53,-19.04 l -81.5,-34.85 c 30.11,0.15 59.82,5.13 88.92,11.41 21.98,4.96 43.76,10.68 65.49,16.63 -80.21,-38.24 -162.01,-73.49 -243.63,-110.51 58.09,13.06 114.86,30.81 171.16,49.96 56.15,19.55 111.66,41.08 166.71,63.94 43.38,17.98 86.24,37.28 128.63,57.74 377.53,163.15 641.29,329.63 768.56,444.83 7.4,28.7 15.14,60.06 22.46,93.77 -20.64,-24.7 -45.26,-38.3 -70.33,-35.75 -57.38,5.83 -95.42,94.05 -84.94,197.04 10.47,102.99 65.49,181.74 122.88,175.91 27.91,-2.84 51.17,-25.27 66.57,-59.31 3.71,222.62 -53.91,490.44 -280.1,767.26 -3.35,4.22 -6.85,8.3 -10.27,12.45 -3.27,3.92 -6.61,7.85 -9.96,11.78 -6.13,7.21 -12.24,14.44 -18.58,21.45 -4.7,5.32 -9.38,10.63 -14.19,15.96 0,0 0.05,-0.4 0.13,-1.03 -16.54,17.46 -33.48,34.47 -51.26,50.49 -48.79,44.08 -102.18,82.36 -158.6,114.41 -56.35,32.18 -115.44,58.63 -176.1,79.49 -60.65,20.92 -123.14,35.71 -186.05,44.47 61.66,-15.37 121.52,-36.5 178.51,-63.2 57,-26.66 111.33,-58.33 161.78,-94.73 50.52,-36.27 96.87,-77.72 137.74,-123.43 30.71,-34.22 58.36,-70.77 82.88,-109.06 -21.63,28.82 -45.33,55.74 -70.75,80.5 -35.61,34.68 -74.38,65.37 -115.3,92.07 -40.94,26.68 -84.06,49.49 -128.68,67.62 82.3,-49.97 153.96,-115.07 209.9,-189.76 31,-41.37 56.41,-86.04 75.71,-132.44 -0.48,0.9 -0.91,1.83 -1.39,2.73 -27.72,52.31 -63.39,99.77 -105.22,139.96 -41.56,40.39 -90.25,72.86 -142.39,94.93 48.32,-29.6 90.14,-67.87 123.66,-111.87 33.73,-43.79 59.86,-92.52 77.79,-143.49 17.97,-50.99 27.8,-104.1 30.7,-157.25 2.02,-51.91 -2.77,-103.58 -11.47,-154.39 -34.08,-83.36 -83.24,-165.36 -153.78,-235.9 0,0 -173.25,48.73 -301.57,65.31 -42.17,13.32 -87.02,20.54 -133.54,20.54 -116.9,0 -223.32,-45.44 -302.74,-119.5 -188.11,189.98 -576.124,500.74 -765.351,652.3 -30.148,24.14 -55.324,44.3 -74.367,59.71 236.242,289.29 583.378,454.45 958.148,454.45 682.17,0 1237.17,-554.99 1237.17,-1237.17 0,-104.41 -15.77,-224.71 -41.46,-324.86 17.26,-40.05 36.83,-74.65 51.64,-105.27 22.58,-46.64 42.07,-86.92 63.35,-146.21 2.91,-8.1 -9.95,-36.04 -71.77,-85.34 8.24,23.46 18.62,65.61 2.86,99.49 -25.25,54.29 -77.01,170.43 -77.01,170.43 0,0 -106.19,-102.37 -380.97,-251.85 -78.45,-42.66 -179.54,-97 -295.68,-151.71 l 0.15,-0.25 c -46.23,-21.96 -93.95,-44.38 -118.91,-56.51 -47.15,-22.84 -94.55,-45.14 -143.05,-65.36 51.49,10.57 102.65,23.48 153.6,36.95 25.41,6.77 50.73,13.69 76.03,20.79 -22.17,-11.25 -44.45,-22.37 -66.85,-33.24 -47.4,-22.98 -95.17,-45.23 -144.04,-65.39 51.83,10.5 103.35,23.35 154.61,37 25.47,6.78 50.87,13.84 76.26,21.11 -22.22,-11.41 -44.59,-22.63 -67.1,-33.57 -47.64,-23.16 -95.8,-45.32 -145.02,-65.44 52.15,10.46 104.03,23.21 155.6,37.05 25.48,6.84 50.9,13.97 76.28,21.41 -22.2,-11.56 -44.58,-22.88 -67.15,-33.87 -47.85,-23.33 -96.4,-45.39 -145.99,-65.5 52.49,10.43 104.72,23.06 156.62,37.13 25.57,6.92 51.07,14.18 76.53,21.84 -22.25,-11.77 -44.74,-23.22 -67.44,-34.32 -48.06,-23.53 -97.02,-45.47 -146.96,-65.55 52.81,10.39 105.42,22.89 157.63,37.19 26.13,7.14 52.16,14.7 78.14,22.76 5.16,1.61 10.3,3.24 15.45,4.89 -79,-31.88 -161.18,-63.24 -245.54,-93.52 -102.19,-36.68 -202.95,-70.15 -300.18,-99.91 12.92,5.93 25.86,11.8 38.75,17.8 44.36,20.71 88.54,41.84 132.03,64.08 -47.13,-12.82 -94.48,-24.35 -141.92,-35.44 -10.43,-2.43 -20.9,-4.74 -31.35,-7.13 9.89,4.85 19.81,9.63 29.68,14.53 44.75,22.26 89.3,44.97 133.01,68.97 -47.64,-14.7 -95.6,-27.89 -143.67,-40.62 -10.32,-2.71 -20.68,-5.32 -31.02,-7.98 10.04,5.2 20.11,10.35 30.13,15.61 45.15,23.81 90.08,48.12 133.98,73.92 -48.12,-16.62 -96.67,-31.49 -145.37,-45.84 -10.19,-2.99 -20.42,-5.85 -30.63,-8.8 10.16,5.57 20.35,11.03 30.49,16.66 45.56,25.36 90.87,51.26 134.93,78.91 -48.55,-18.61 -97.69,-35.14 -147.01,-51.13 -10.04,-3.23 -20.13,-6.34 -30.2,-9.52 10.25,5.89 20.54,11.68 30.76,17.64 45.98,26.9 91.7,54.39 135.87,83.93 -48.94,-20.63 -98.66,-38.83 -148.6,-56.44 -44.66,-15.67 -212.83,-79.05 -283.68,-103.66 -53.72,-17.83 -106.13,-34.13 -156.108,-48.63 l 44.428,-145.23 c -23.01,-4.73 -45.6,-9.18 -67.397,-13.13 -7.653,-1.37 -15.117,-2.68 -22.438,-3.94 l -42.226,138.04 c -46.992,-12.32 -90.781,-22.64 -130.219,-30.68 l 38.352,-125.37 c -10.946,-0.97 -21.27,-1.74 -30.985,-2.3 l -37.273,121.85 c -20.469,-3.76 -39.551,-6.83 -56.977,-9.1 9.613,-35.05 26.977,-88.3 35.453,-113.92 -59.824,1.62 -81.812,12.94 -84.386,20.11 z m -430.766,691.73 c -190.375,417.04 -144.3789,900.13 117.988,1273.27 10.629,-8.37 23.02,-18.14 36.879,-29.1 -57.597,-85.67 -104.871,-177.62 -140.902,-273.84 34,64.69 78.277,103.53 114.472,93.58 17.629,-4.85 30.895,-20.79 39.543,-44.1 1.055,66.21 32.012,119.35 70.137,119.35 38.789,0 70.227,-54.98 70.227,-122.8 0,-67.81 -31.438,-122.79 -70.227,-122.79 -24.508,0 -46.055,21.98 -58.617,55.24 0.535,-35.62 -4.695,-76.63 -16.375,-119.11 -31.727,-115.35 -98.699,-197.51 -149.582,-183.52 -40.031,11.01 -58.055,78.34 -48.527,162.69 C 79.0586,2498.64 99.2188,2209.02 218.32,1937.81 280.16,1796.99 356.395,1672.24 453.613,1566.04 337.68,1677.65 244.727,1809 176.918,1957.53 Z m 419.551,551.44 c 0.219,-1.91 0.031,-0.03 0.015,0.18 0.059,0.58 0.075,1.16 0.274,1.79 0.387,1.19 0.39,3.23 0.625,4.88 0.308,3.4 -0.863,7.2 -1.442,10.92 -1.707,7.61 -3.418,15.61 -5.808,23.56 -4.578,15.94 -12.805,30.66 -19.395,46.45 -6.672,15.8 -13.574,31.81 -18.008,50.12 -0.968,4.69 -2.281,9.17 -2.734,14.25 l -0.891,7.48 c -0.058,3.05 -0.132,6.39 0.231,9.28 1.137,12.09 4.844,21.9 8.785,30.98 8.192,17.96 18.43,32.71 29.102,46.56 10.492,13.87 22.05,26.45 32.613,38.15 l 7.398,8.42 c 2.27,2.57 4.352,5.29 5.047,6.3 0.039,0.16 -0.062,-0.33 0.242,0.3 l 0.852,1.67 c 0.59,1.06 1.156,2.75 1.766,4.09 l 3.664,10.12 c 9.742,29.52 22.336,65.37 49.371,90.43 1.847,-36.51 3.551,-66.56 -0.707,-101.72 -0.668,-4.46 -1.391,-9.08 -2.645,-13.92 -0.746,-2.57 -1.261,-4.9 -2.234,-7.67 l -1.453,-4.1 c -0.438,-1.3 -1.617,-3.58 -2.469,-5.28 -3.434,-6.19 -6.395,-10.08 -9.309,-13.97 -2.879,-3.85 -5.836,-7.25 -8.656,-10.55 -11.371,-13.16 -22.543,-24.72 -33.437,-36.18 -10.606,-11.49 -21.094,-22.9 -28.586,-34.2 -3.711,-5.55 -6.707,-11.19 -7.957,-15.56 -0.442,-1.18 -0.504,-2.02 -0.801,-3.1 l -0.215,-4.92 c -0.363,-3.23 0.137,-6.89 0.219,-10.41 1.183,-14.41 5.293,-29.88 10.562,-44.95 5.473,-15.08 10.864,-30.59 19.547,-45.03 4.285,-7.22 9.028,-14.48 13.32,-22.32 l 6.625,-12.58 c 1.286,-2.37 2.758,-4.23 3.844,-7.13 0.574,-1.4 0.981,-2.86 1.418,-4.31 0.309,-1.83 0.731,-1.96 0.91,-5.96 0.176,-6.1 -0.668,-9.84 -1.382,-13.06 -0.762,-3.25 -1.622,-5.95 -2.497,-8.51 -1.765,-5.05 -3.636,-9.46 -5.554,-13.7 -3.848,-8.44 -7.891,-16.21 -12.016,-23.84 -16.574,-30.25 -34.277,-58.42 -51.836,-86.71 l -53.023,-83.37 c -8.61,-13.73 -17.071,-27.59 -24.211,-41.04 -1.766,-3.35 -3.41,-6.65 -4.852,-9.79 l -4.156,-9.66 c -2.598,-6.71 -5.121,-13.25 -6.988,-19.71 -4.149,-12.87 -5.969,-25.39 -2.989,-37.48 2.809,-12.16 11.579,-23.43 23.301,-32.08 11.446,-8.8 25.817,-16 39.801,-21.25 7.133,-2.33 14.223,-4.25 21.723,-5.78 7.554,-1.74 15.562,-2.36 27.32,-6.83 5.738,-2.03 12.238,-6.23 17.562,-10.98 5.04,-4.94 8.973,-10.21 11.911,-15.17 5.894,-10.28 8.711,-18.44 12.078,-28.08 3.168,-10.92 4.367,-22.89 3.265,-34.25 -1.07,-11.42 -4.504,-21.86 -8.293,-31.15 -3.769,-9.33 -8.484,-17.45 -13.226,-24.35 -4.629,-6.88 -9.719,-12.75 -12.524,-16.37 -1.476,-1.75 4.485,-18.71 10.051,-24.36 5.594,-5.75 11.801,-11.07 18.512,-15.86 6.816,-4.72 14.301,-8.42 22.664,-12.16 4.203,-1.98 8.426,-3.9 13.492,-7.59 1.344,-1.08 2.684,-2.19 4.227,-4.04 0.664,-0.66 1.707,-2.29 2.457,-3.48 0.844,-1.45 1.863,-3.77 2.437,-6.14 0.625,-2.75 0.739,-6.03 0.582,-7.59 -0.062,-0.99 -0.16,-1.98 -0.3,-2.95 l -0.372,-2.05 c -0.293,-1.49 -0.621,-2.65 -0.91,-3.55 l -0.926,-2.81 c -2.378,-6.54 -4.554,-10.39 -6.769,-14.34 -2.195,-3.84 -4.551,-7.1 -6.621,-10.33 l -11.606,-16.04 c -1.507,-2.14 -1.953,-10.64 0.336,-13.65 l 7.434,-9.53 15.586,-19.12 c 10.672,-12.73 21.699,-25.4 32.898,-38.14 2.825,-3.16 5.375,-6.48 8.614,-9.89 3.117,-3.38 6.66,-6.61 10.05,-10.46 3.442,-3.75 6.473,-8.36 8.368,-13.52 1.929,-5.18 2.171,-10.91 1.769,-16.17 -0.824,-10.67 -3.734,-19.7 -6.875,-27.55 -3.098,-7.93 -6.062,-15.1 -8.445,-22.42 -4.813,-14.5 -5.977,-30.3 -4.063,-47.39 -9.867,13.87 -15.14,32.1 -14.297,50.33 0.422,18.1 6.184,35.32 4.723,47.19 l -1.309,8.42 c -0.359,2.79 -0.296,5.99 -1.035,9.41 -0.574,3.44 -1.843,6.98 -3.906,10.06 -2.019,3.01 -5.043,5.82 -7.871,8.71 -11.406,11.51 -24.301,21.81 -37.34,32.24 -6.555,5.18 -13.191,10.39 -19.703,15.88 l -9.777,8.42 -4.86,4.37 -1.211,1.1 -1.781,1.94 c -1.25,1.35 -2.41,2.86 -3.469,4.54 -4.343,6.54 -6.691,15.01 -6.711,22.17 -0.207,7.27 1.059,13.55 2.598,19.09 3.207,11.05 8.039,19.58 13.109,26.97 2.657,3.58 5.176,7.02 7.77,9.95 1.902,2.13 3.875,4.31 5.332,5.61 -4.547,6.55 -10.406,12.49 -16.816,17.6 -6.602,5.08 -13.653,9.71 -20.93,14.41 -7.231,4.84 -14.961,9.22 -22.754,15.67 -0.992,0.82 -1.992,1.59 -2.988,2.54 -0.977,0.89 -1.938,1.67 -3.348,3.48 -2.629,3.01 -4.734,7.05 -6.144,11.16 -2.75,8.47 -2.176,16.28 -1.297,22.41 2.195,12.22 5.5,20.81 8.699,28.49 l 8.879,20.15 c 2.488,6.02 3.957,11.59 4.636,16.68 0.895,5.1 0.739,9.93 -0.292,15.03 -1.274,6.24 -3.204,14.09 -5.102,18.48 -0.883,2.4 -1.703,3.95 -2.231,5.17 -0.757,0.83 -0.875,1.84 -2.851,2.94 -3.371,2.4 -11.75,5.08 -20.027,8.16 -8.411,3.12 -16.903,6.91 -25.032,11.02 -8.183,4.16 -15.898,8.37 -23.429,13.2 -7.614,4.7 -15.215,9.7 -22.426,15.56 -14.293,11.61 -28.449,26 -37.676,44.93 -9.445,18.86 -11.875,40.82 -9.824,60.38 1.152,9.83 3.219,19.27 6.18,28.17 1.425,4.38 2.918,8.88 4.953,13.47 1.91,4.43 3.871,8.6 5.879,12.62 8.023,16.03 16.546,30.67 25.183,45.23 17.324,28.98 35.738,56.66 53.77,84.38 18.215,27.5 36.562,55.01 52.636,82.47 3.973,6.83 7.762,13.68 10.981,20.23 1.594,3.26 3.023,6.45 4.082,9.2 0.516,1.35 0.93,2.59 1.144,3.37 0.297,0.79 0.118,1.19 0.196,-0.78 z m 267.484,-223.94 c 3.637,12.9 9.309,25.18 16.793,36.39 7.473,11.19 16.836,21.34 27.949,29.42 11.114,7.95 24.086,14.1 38.274,14.91 l -41.055,-61.19 c -6.594,-9.81 -13.316,-19.68 -20.484,-29.65 -7.282,-9.98 -14.739,-19.99 -24.309,-30.35 -2.453,13.94 -0.656,27.56 2.832,40.47 z m -137.906,-88.44 c 8.715,-21.08 17.101,-40.32 28.75,-56.91 11.226,-16.77 25.633,-31.03 40.551,-47.15 14.836,-15.97 29.652,-34.37 39.582,-55.43 9.929,-21.01 15.238,-43.81 14.832,-66.48 -11.907,19.48 -22.5,37.76 -35.227,54.17 -12.465,16.58 -26.687,31.22 -41.504,47.26 -14.656,15.88 -30.121,34.26 -39.164,56.42 -9.097,21.99 -11.687,45.81 -7.82,68.12 z m -16.606,280.25 c 1.395,6.79 4.219,13.36 8.418,19 4.278,5.56 9.782,10.41 17.024,12.57 -0.645,-7.5 -1.684,-13.39 -2.574,-19.17 -0.965,-5.7 -1.95,-11.09 -3.09,-16.49 -1.129,-5.41 -2.379,-10.82 -3.836,-16.49 -1.567,-5.71 -3.113,-11.49 -5.649,-18.55 -5.652,5.02 -8.546,11.73 -10.183,18.47 -1.508,6.8 -1.504,13.86 -0.11,20.66 z m 55.739,-137.6 c -15.438,1.72 -27.512,15.01 -31.114,29.84 -1.886,7.43 -1.902,15.3 0.114,22.66 2.047,7.2 6.254,14.59 13.332,18.2 0.371,-7.75 1.304,-13.48 2.453,-19.37 1.086,-5.77 2.301,-11.16 3.656,-16.47 1.375,-5.32 2.859,-10.56 4.809,-16.09 z m -29.262,223.98 c -7.68,3.34 -14.613,6.78 -20.941,8.67 -1.594,0.41 -3.118,1 -4.633,1.27 l -1.141,0.27 c -0.281,0.06 -0.719,0.16 -1.844,0.54 -1.843,0.61 -3.683,1.3 -5.484,2.07 -3.516,1.58 -6.184,4.04 -8.91,6.32 -2.027,2.38 -4.469,4.95 -5.891,7.42 -6.066,10.14 -8.187,19.78 -9.32,29.05 -0.973,9.28 -0.805,18.3 0.23,27.12 2.332,17.5 7.539,34.7 17.762,49.29 1.984,-17.53 3.668,-33.53 5.977,-49.15 1.242,-7.75 2.574,-15.29 4.285,-22.38 1.691,-6.99 4.051,-13.65 6.644,-17.69 0.578,-1.17 1.215,-1.49 1.672,-2.41 0.524,-0.2 0.836,-0.86 1.11,-0.9 0.117,-0.01 0.191,-0.1 0.265,-0.28 -0.183,-0.06 0.375,-0.26 1.086,-0.48 l 1.848,-0.6 c 2.5,-0.78 4.82,-1.74 7.097,-2.81 9.09,-4.28 16.235,-9.76 22.672,-15.03 12.692,-10.63 23.516,-20.31 39.504,-28.39 -17.34,-4.89 -36.847,1.08 -51.988,8.1 z m -391.184,531.06 c -3.89,-20.49 -16.535,-35.3 -28.246,-33.07 -11.707,2.22 -18.05,20.63 -14.16,41.12 3.891,20.49 16.539,35.3 28.254,33.08 11.707,-2.23 18.047,-20.64 14.152,-41.13 z M 509.375,1439.13 c -4.047,0.45 -17.504,8.49 -26.848,24 l 8.192,0.87 c 12.179,1.29 301.359,33.41 556.791,191.78 l 5.05,3.13 3.49,4.8 c 6.23,8.56 143.07,197.72 219.69,379.72 10.33,-10.94 21.2,-21.36 32.58,-31.22 -64.86,-166.19 -195.36,-353.28 -218.91,-386.43 -258.312,-148.8 -486.18,-187.55 -580.035,-186.65 z m 1473.185,908.95 c 0,-211.61 -172.16,-383.77 -383.77,-383.77 -211.61,0 -383.77,172.16 -383.77,383.77 0,211.61 172.16,383.77 383.77,383.77 211.61,0 383.77,-172.16 383.77,-383.77 z M 384.84,3365.3 c 11.98,-10.28 38.094,-31.34 74.164,-60.26 -11.344,-9.28 -25.645,-23.24 -42.246,-44.24 24.265,-18.86 50.043,-39.13 76.883,-60.43 8.933,11.26 22.527,27.34 39.992,44.88 15.035,-12.06 30.965,-24.84 47.558,-38.19 -17.847,-17.45 -31.66,-33.76 -40.168,-44.49 11.758,-9.42 23.684,-19.02 35.75,-28.75 8.079,10.43 21.536,26.78 39.446,45.04 10.34,-8.33 20.855,-16.82 31.594,-25.5 -18.297,-18.39 -31.989,-35.09 -39.614,-44.97 207.762,-168.59 450.271,-374.26 613.941,-524.92 -6.78,-10.82 -13.09,-21.96 -18.94,-33.37 -186.15,191.39 -851.829,713.59 -911.313,760.16 4.683,9.94 11.859,21.19 22.164,32.31 4.406,4.76 43.816,45.83 70.789,22.73 z m 2569.1,-539.8 -57.38,-41.21 -40.47,-29.08 -138.1,-99.17 125.97,120.32 -201.28,351.05 235.53,-318.32 29.28,27.97 -288.88,454.18 -70.49,-52.16 49.43,71.76 -137.33,71.57 150.83,-51.98 22.49,-7.75 8.9,-13.81 z m -88.43,-208.03 c -43.43,-32.22 -73.89,-48.17 -97.92,-53.81 110.47,73.09 128.32,118.18 126.48,144.23 l 49.43,35.5 c 10.31,-25.04 6.73,-63.07 -77.99,-125.92 z m 198.91,-343.32 c -12.41,2.39 -25.13,4.35 -38.01,5.44 -18.63,1.52 -37.54,1.79 -56.66,-0.16 17.04,8.89 35.39,15.96 54.24,21.74 11.94,3.61 24.02,6.68 36.44,9.2 1.81,-12.15 3.08,-24.18 3.99,-36.22 z m 95.46,-435.64 c 2.5,-2.15 5.01,-4.31 7.53,-6.48 -15.06,-3.58 -30.59,-8.95 -45.37,-15.43 -18.89,-8.4 -37.3,-18.72 -53.47,-32.88 10.56,18.78 25.22,35.68 41.38,50.92 8.82,8.19 18,15.9 27.81,23.15 7.23,-6.49 14.63,-12.87 22.12,-19.28 z m -229.65,715.53 c -18.17,-6.64 -36.8,-12.05 -55.57,-14.07 16.5,8.91 30.94,20.47 44.38,32.68 6.45,5.93 12.6,12.12 18.19,18.46 6.53,-8.63 12.86,-17.26 18.96,-25.96 -8.62,-4.23 -17.25,-7.87 -25.96,-11.11 z m 85.62,-93.94 c -30.61,-6.66 -61.45,-10.5 -91.77,-9.72 27.72,10.59 53.12,25.04 76.74,41.27 5.23,-10.18 10.25,-20.67 15.03,-31.55 z m 22.87,-60.38 c -11.98,-1.54 -23.55,-2.53 -35.16,-3.74 -18.46,-1.8 -36.74,-3.74 -55.08,-7.04 15.68,10.04 32.29,19.06 48.79,27.83 10.01,5.36 20.18,10.67 29.75,16.11 4.08,-10.62 7.97,-21.68 11.7,-33.16 z m -10.81,-217.05 c 12.39,1.7 24.83,2.85 37.5,3.42 -0.41,-11.4 -0.96,-23.13 -1.59,-35.22 -11.87,3.94 -24.21,7.34 -36.65,10.1 -19.43,4.25 -39.38,7.14 -59.83,7.73 19.37,6.57 39.8,11.04 60.57,13.97 z m 55.46,-261.28 c -16.29,-0.22 -33.56,-2.28 -50.31,-5.77 -20.2,-4.33 -40.34,-10.64 -59.08,-21.17 14.19,16.21 32.02,29.73 50.97,41.32 13.61,8.17 27.62,15.42 42.75,21.58 4.13,-13.2 9.43,-25.09 15.67,-35.96 z m -65.3,-94.75 c 10.56,18.79 25.23,35.68 41.39,50.92 10.7,9.93 21.96,19.15 34.22,27.68 7.69,-10.74 16.29,-20.54 25.47,-29.82 -15.76,-3.56 -32.08,-9.1 -47.61,-15.9 -18.89,-8.4 -37.29,-18.71 -53.47,-32.88 z m 50.56,-99.17 c -7.07,-5.28 -16.68,-4.36 -21.47,2.04 -4.78,6.42 -2.94,15.89 4.13,21.16 7.06,5.29 16.67,4.37 21.46,-2.05 4.78,-6.4 2.94,-15.88 -4.12,-21.15 z m 20.44,-39.48 c -5.97,-3.45 -13.34,-1.86 -16.47,3.56 -3.12,5.41 -0.82,12.59 5.15,16.04 5.97,3.45 13.34,1.85 16.46,-3.57 3.13,-5.41 0.82,-12.58 -5.14,-16.03 z m 8.42,-33.82 c -6.18,-1.57 -12.34,1.69 -13.76,7.29 -1.43,5.59 2.42,11.4 8.59,12.97 6.17,1.58 12.33,-1.69 13.76,-7.28 1.42,-5.6 -2.42,-11.41 -8.59,-12.98 z m 15.11,-21.35 c 0.86,-5.7 -3.55,-11.1 -9.85,-12.05 -6.3,-0.95 -12.1,2.92 -12.95,8.63 -0.86,5.72 3.54,11.11 9.84,12.06 6.3,0.94 12.1,-2.92 12.96,-8.64 z m 14.25,-17.09 c 29.6,11.75 64.49,9.62 95.98,-1.22 14.64,-5.09 28.82,-12.24 42.02,-21.69 -2.97,-13.08 -6.77,-25.58 -11.07,-37.23 -9.29,14.98 -23.73,28.95 -40.2,39.27 -24.8,15.56 -55.36,25.45 -86.73,20.87 z m -116.11,181.86 c 7.68,5.73 18.12,4.73 23.33,-2.24 5.2,-6.96 3.19,-17.25 -4.49,-22.99 -7.68,-5.74 -18.12,-4.74 -23.33,2.23 -5.2,6.96 -3.19,17.26 4.49,23 z m -166.96,690.08 c -7.06,-2.53 -14.63,0.61 -16.92,7.01 -2.29,6.4 1.57,13.64 8.62,16.16 7.06,2.53 14.64,-0.61 16.93,-7.01 2.29,-6.4 -1.57,-13.64 -8.63,-16.16 z m 28.63,-44.62 c -8.09,-3.81 -17.44,-0.96 -20.9,6.37 -3.47,7.34 0.28,16.38 8.37,20.19 8.08,3.81 17.45,0.96 20.91,-6.37 3.45,-7.34 -0.3,-16.37 -8.38,-20.19 z m 18.85,-45.67 c -8.99,-3 -18.48,1.18 -21.2,9.34 -2.72,8.16 2.37,17.2 11.36,20.2 8.99,3 18.49,-1.19 21.21,-9.34 2.72,-8.16 -2.37,-17.2 -11.37,-20.2 z m 17.04,-50.14 c -7.9,-2.63 -16.23,1.04 -18.62,8.2 -2.39,7.16 2.07,15.1 9.97,17.73 7.89,2.63 16.23,-1.04 18.62,-8.2 2.39,-7.16 -2.07,-15.1 -9.97,-17.73 z m 9.67,-53.73 c -8.19,-1.22 -15.73,3.81 -16.83,11.24 -1.12,7.43 4.64,14.44 12.82,15.66 8.19,1.22 15.73,-3.81 16.84,-11.24 1.1,-7.43 -4.64,-14.44 -12.83,-15.66 z m 10.59,-54.49 c -7.42,-1.11 -14.24,3.45 -15.24,10.17 -1,6.72 4.19,13.07 11.61,14.17 7.41,1.11 14.23,-3.45 15.23,-10.17 1.01,-6.73 -4.19,-13.07 -11.6,-14.17 z m 8.2,-54.92 c -7.41,-1.1 -14.24,3.45 -15.23,10.18 -1.01,6.72 4.19,13.06 11.6,14.17 7.41,1.11 14.24,-3.45 15.24,-10.18 1,-6.72 -4.2,-13.06 -11.61,-14.17 z m 4.42,-60.59 c -7.42,-1.11 -14.23,3.45 -15.24,10.17 -0.99,6.73 4.2,13.07 11.61,14.17 7.42,1.11 14.23,-3.45 15.24,-10.17 0.99,-6.72 -4.2,-13.07 -11.61,-14.17 z m -0.1,-65.28 c -7.92,-1.18 -15.21,3.69 -16.28,10.87 -1.06,7.18 4.48,13.96 12.4,15.14 7.92,1.18 15.21,-3.69 16.28,-10.87 1.07,-7.18 -4.48,-13.96 -12.4,-15.14 z m -5.92,-43.26 c 8.54,1.27 16.38,-3.97 17.53,-11.71 1.15,-7.74 -4.82,-15.04 -13.36,-16.31 -8.53,-1.27 -16.38,3.97 -17.53,11.71 -1.15,7.74 4.83,15.04 13.36,16.31 z m 5.49,-109.71 c -10.4,-1.54 -19.96,4.85 -21.37,14.27 -1.39,9.43 5.89,18.32 16.28,19.87 10.39,1.55 19.95,-4.84 21.36,-14.26 1.4,-9.43 -5.88,-18.32 -16.27,-19.88 z m 41.27,-50.32 c 5.76,-7.72 3.53,-19.13 -4.97,-25.49 -8.52,-6.35 -20.09,-5.25 -25.85,2.47 -5.77,7.72 -3.55,19.13 4.97,25.49 8.5,6.36 20.09,5.25 25.85,-2.47 z m 34.09,141.39 c 13.63,6.38 27.56,11.87 42.38,16.28 0.63,-13.19 2.17,-25.32 4.51,-36.56 -13.34,0.84 -27.32,0.6 -41.02,-0.62 -19.81,-1.89 -39.76,-5.62 -58.85,-13.65 15.18,14.17 33.66,25.32 52.98,34.55 z m 5.06,62.22 c 12.52,3.66 25.17,6.56 38.33,8.62 -0.45,-9.61 -0.87,-19.38 -1.24,-29.58 -0.07,-2.06 0.01,-3.93 -0.03,-5.94 -11.23,2.48 -22.97,4.3 -34.68,5.32 -18.61,1.5 -37.66,1.44 -56.64,-2.91 16.11,11.05 34.98,18.67 54.26,24.49 z m 39.41,30.56 c -10.96,3.49 -22.48,6.36 -34.04,8.44 -18.41,3.19 -37.38,4.87 -56.67,2.25 17.05,9.55 36.53,15.42 56.26,19.46 11.96,2.35 23.98,4.01 36.35,4.93 -0.06,-1.09 -0.12,-2.13 -0.18,-3.22 -0.57,-10.42 -1.16,-21.05 -1.72,-31.86 z m 210.15,-458.95 c -12.36,11.76 -29.03,21.45 -46.71,27.46 -27.69,9.42 -59.73,12.02 -89.2,0.34 26.1,18.25 60.55,24.21 93.68,20.9 14.15,-1.45 28.32,-4.71 42.16,-9.97 1.18,-13.04 1.1,-26.02 0.07,-38.73 z m -6.51,74.01 c -18.19,5.53 -39.13,7.91 -59.68,6.9 -24.75,-1.25 -49.91,-7.18 -73.09,-19.44 18.89,18.14 42.87,31.91 68.87,40.74 15.45,5.1 31.38,8.84 48.08,10.51 6.99,-12.62 12.14,-25.59 15.82,-38.71 z m -38.97,71.46 c -16.96,2.29 -36.94,0.44 -55.6,-4.79 -20.6,-5.79 -40.68,-15.73 -58.06,-30.5 11.83,19.45 28.78,36.64 48.75,50.12 10.51,6.93 21.56,13.08 33.55,18 10.61,-9.97 21.13,-20.75 31.36,-32.83 z m -159.04,439.4 c -10.78,1.26 -21.79,2.06 -32.77,2.39 -19.89,0.53 -40.02,-0.38 -60.22,-3.63 17.79,10.09 37.03,18.3 56.88,25.09 11.72,3.94 23.6,7.37 35.8,10.29 0.37,-11.22 0.44,-22.58 0.31,-34.14 z m -18.81,156.51 c 3.34,-11.86 6.09,-23.38 8.43,-34.72 -31.49,2.69 -62.69,5.12 -94.4,5.73 28.04,10.95 56.99,20.44 85.8,29.56 0.05,-0.2 0.12,-0.38 0.17,-0.57 z m -58.98,143.06 c -0.87,-0.37 -1.75,-0.77 -2.63,-1.14 -9.31,-3.83 -18.59,-6.95 -27.91,-9.67 -18.62,-5.31 -37.57,-9.38 -56.44,-10.04 17.09,7.7 32.33,18.19 46.6,29.4 7.1,5.64 13.91,11.55 20.11,17.69 0.89,0.88 1.76,1.8 2.63,2.71 6.12,-9.46 12,-19.09 17.64,-28.95 z m -180.88,-917.37 c -7.98,4.04 -17.52,3.57 -25.08,-1.28 -1.96,-1.26 -43.77,-27.1 -88.79,6.19 89.27,72.31 77.2,106.38 72.19,120.35 l -4.67,13.17 c -3.57,10.14 -8.43,23.93 -13.63,38.43 l -5.02,13.98 -14.84,-0.63 c -6.38,-0.27 -11.49,0.95 -15.51,3.34 17.48,28.74 11.56,45.28 8.42,54.03 -1.66,4.63 -3.34,9.63 -5.11,14.89 -4.16,12.39 -8.87,26.2 -15,40.66 89.5,74.04 92.08,117.4 81.8,146.02 -22.35,62.31 -43.46,105.93 -65.82,152.13 -13.36,27.6 -27.16,56.15 -42.27,90.73 18.44,74.5 30.31,150.78 35.32,227.84 9.88,-3.34 19.94,-5.48 30.4,-6.22 54.64,-81.76 76.12,-134.26 100.11,-240.71 20.21,-89.68 16.76,-160.54 12,-258.62 -1.15,-23.61 -2.37,-48.66 -3.34,-75.77 -3.99,-110.64 49.03,-156.73 105.14,-205.52 6.36,-5.53 12.86,-11.18 19.39,-17.03 2.12,-1.9 46.45,-42.36 50.98,-97.74 -53.41,1.65 -91.84,-20.82 -118.65,-68.01 z m 65.66,-267.1 c -8.96,3.1 -18.32,6.6 -28.01,11.42 -2.47,1.32 -4.89,2.47 -7.43,3.97 -2.59,1.6 -5.1,3.33 -7.64,5.05 -2.64,2.15 -5.27,4.44 -7.84,6.75 -2.43,2.72 -4.78,5.67 -7.05,8.62 -8.3,12.21 -11.41,25.03 -13.41,36.14 -1.62,11.19 -1.94,21.13 -2.42,30.55 -0.35,18.39 -1.85,34.39 -6.27,40.97 -0.79,2 -2.44,3.18 -3.73,4.94 -2.27,1.05 -3.6,3.03 -6.81,4.23 -5.89,2.71 -14.24,5.09 -22.91,7.25 -17.57,4.36 -37.23,8.58 -55.96,16.78 -9.35,4.15 -18.45,9.4 -26.37,15.97 -7.91,6.69 -14.33,14.86 -18.46,23.69 8.41,-5.19 16.62,-9.05 25.17,-11.5 8.7,-2.16 17.21,-3.66 26.03,-4.32 17.63,-1.38 35.51,-0.72 55.1,-1.44 9.89,-0.56 20.18,-1.15 32.07,-4.53 5.88,-1.38 12.41,-4.8 18.44,-8.05 5.88,-4.32 11.73,-8.89 16.06,-14.89 9.01,-11.61 13.05,-24.88 15.18,-36.06 1.91,-11.26 2.44,-21.67 2.9,-31.15 0.36,-18.74 1.54,-35.34 5.55,-42.47 0.56,-0.79 0.95,-1.66 1.42,-2.62 0.88,-0.87 1.68,-1.79 2.49,-2.8 1.27,-1.04 2.56,-2.06 3.77,-3.21 1.35,-1.13 3.05,-2.26 4.56,-3.41 6.61,-4.5 14.2,-9.13 22.3,-13.87 15.99,-9.5 33.24,-19.97 48.37,-33.44 15,-13.47 28.04,-30.92 32.41,-50.09 -28.16,27.38 -61.75,34.88 -97.51,47.52 z m -187.2,53.21 c -7.89,1.45 -15.5,1.64 -23.25,0.7 -3.88,-0.57 -7.77,-1.13 -11.7,-2.16 l -14.71,-3.22 c -20.05,-3.98 -41.01,-6.27 -62.3,-5.08 -21.16,1.31 -43.02,5.89 -61.58,17.59 l 58.9,14.06 c 18.87,4.56 37.67,9.25 57.13,13.05 l 14.93,2.7 c 5.97,0.87 12.08,1.45 18.28,1.28 12.38,-0.35 25.04,-3.52 35.89,-9.47 22.05,-11.92 35.04,-33.13 38.32,-54.44 -17.63,12.79 -34.02,22.3 -49.91,24.99 z m 147.44,-156.91 c 14.78,2.94 29.72,4.29 44.68,4.23 14.96,-0.06 29.97,-1.57 44.8,-4.86 14.74,-3.41 29.64,-8.42 42.74,-17.68 -15.62,-3.12 -29.97,-4.8 -44.49,-6.08 -14.45,-1.19 -28.8,-1.78 -43.19,-1.67 -14.4,0.09 -28.82,0.83 -43.36,2.34 -14.6,1.6 -29.07,3.86 -44.44,7.94 13.68,8.35 28.56,12.67 43.26,15.78 z m -94.94,17.64 c -10.41,-0.6 -21.01,-0.42 -32.09,1.38 -10.96,1.77 -22.97,5.21 -33.96,12.3 -2.74,1.69 -5.39,3.61 -7.79,5.67 l -4.52,4.03 c -1.7,1.4 -5.05,3.49 -8.94,5.28 -7.89,3.86 -17.78,7.9 -27.3,13.79 -9.55,5.74 -18.87,13.74 -25.06,23.66 -6.22,9.92 -8.91,21.22 -8.12,31.76 6.81,-8.23 13.77,-14.72 21.36,-18.99 7.51,-4.39 15.42,-6.79 23.9,-8.96 8.55,-2.11 17.68,-3.6 28.27,-6.64 5.31,-1.73 11.16,-3.43 17.65,-7.57 1.6,-0.97 3.28,-2.23 4.91,-3.5 l 2.26,-1.57 c 1.5,-0.93 2.84,-1.95 4.36,-2.77 11.38,-6.77 29.3,-10.39 47.76,-15.03 18.63,-4.5 38.11,-9.31 57.83,-18.29 -19.76,-8.95 -39.78,-13.09 -60.52,-14.55 z m 496.62,136.09 c 2.1,32.96 -19.46,94.87 -200.85,184.43 26,-2.86 59.78,-13.07 104.54,-33.82 141.22,-65.5 147.1,-113.48 126.49,-165.93 z m 229.1,-607.488 -111.1,536.938 c -1.56,7.52 -6.45,13.92 -13.3,17.4 l -29.49,14.97 c 24.14,60.92 16.35,110.45 -27.22,155.23 18.12,34.75 34.91,82.82 38.18,134.8 0.05,0.83 0.12,1.66 0.17,2.5 2.97,54.71 -9.22,113.51 -50.78,165.46 -25.81,32.27 -53.46,55.97 -77.84,76.88 -50.59,43.36 -87.15,74.7 -84.12,158.93 1.06,29.5 2.55,56.39 4,82.38 5.38,96.91 9.64,173.45 -16.72,267.06 -30.76,109.3 -73.63,179.9 -132.09,254.09 30.37,37.42 46.83,82.45 20.97,133.73 l 27.91,20.05 c 13.12,9.41 16.54,27.45 7.79,41.02 l -341.7,530.21 c -3.68,5.71 -9.17,10.02 -15.58,12.23 l -290.7,100.18 C 2135.02,3736.67 1793.47,3900 1414.48,3900 c -393.62,0 -758.156,-173.68 -1005.968,-477.83 -41.61,22.84 -95.215,8.77 -138.918,-38.42 -37.258,-40.24 -58.946,-96.71 -36.035,-135.27 -264.2192,-388.3 -308.2192,-885.77 -111.762,-1316.12 72.367,-158.5 172.09,-298.38 296.805,-416.7 -8.129,-25.59 -4.93,-53.88 9.918,-80.36 17.566,-31.31 47.851,-53.59 75.214,-56.23 19.094,-54.57 23.532,-67.69 25.903,-74.7 2.832,-8.37 2.828,-8.37 21.011,-59.05 10.313,-28.7 39.903,-60.7 157.055,-60.7 14.781,0 30.992,0.53 48.707,1.61 2.977,-8.33 6.039,-16.22 8.903,-23.51 2.398,-6.1 4.683,-11.9 6.644,-17.37 3.203,-8.92 9.375,-25.98 42.953,-37.04 -1.148,-4.01 -3.355,-7.9 -7.387,-10.52 l -12.605,-8.19 4.242,-14.43 c 6.656,-22.66 12.047,-36.56 15.61,-45.74 0.968,-2.49 1.789,-4.58 2.437,-6.39 4.449,-12.41 14.59,-40.54 96.953,-46.079 C 628.594,757.488 683.965,525.172 683.965,525.172 715.945,664.871 806.84,730.52 806.84,730.52 766.445,624.469 838.824,572.289 838.824,572.289 c -13.469,-85.84 20.199,-159.91 20.199,-159.91 11.782,55.551 63.961,153.18 63.961,153.18 -6.734,159.91 63.957,183.472 63.957,183.472 -50.492,-107.73 -15.144,-212.09 -15.144,-212.09 -62.281,-106.043 -58.91,-227.23 -58.91,-227.23 104.353,196.937 159.903,188.519 159.903,188.519 26.93,63.961 58.91,89.211 58.91,89.211 -63.96,-158.222 -47.13,-210.402 -47.13,-210.402 156.54,351.793 218.82,350.109 218.82,350.109 C 1007.14,141.391 1064.37,0 1064.37,0 c 329.91,555.461 880.32,752.391 880.32,752.391 1.19,1.39 2.44,2.828 3.65,4.238 253.61,217.082 348.24,262.451 442.69,296.461 261.14,81.82 480.98,89.54 653.77,22.51 186.08,-72.19 372.47,-320.62 374.33,-323.131 4.88,-6.559 12.48,-10.18 20.27,-10.18 3.48,0 6.99,0.731 10.32,2.223 10.8,4.847 16.79,16.547 14.4,28.16"
         style="fill:#262525;fill-opacity:1;fill-rule:nonzero;stroke:none"
         transform="matrix(0.13333333,0,0,-0.13333333,0,520)" />
      <path
         id="path9"
         d="m 2003.61,2841.26 c 41.51,-18.16 121.19,103.19 121.19,222.19 0,118.99 -60.51,225.16 -101,215.44 -42.08,-10.09 -16.99,-94.87 -21.88,-213.76 -5.05,-122.87 -52.18,-200.31 1.69,-223.87"
         style="fill:#262525;fill-opacity:1;fill-rule:nonzero;stroke:none"
         transform="matrix(0.13333333,0,0,-0.13333333,0,520)" />
      <path
         id="path10"
         d="m 2080,3300.91 c 11,7.44 5.55,34.7 -12.15,60.87 -17.71,26.18 -40.98,41.38 -51.98,33.94 -10.99,-7.43 -5.54,-34.68 12.16,-60.86 17.71,-26.19 40.98,-41.38 51.97,-33.95"
         style="fill:#262525;fill-opacity:1;fill-rule:nonzero;stroke:none"
         transform="matrix(0.13333333,0,0,-0.13333333,0,520)" />
    </g>
  </g>
</svg>
